<?xml version="1.0" encoding="UTF-8" standalone="no"?>
<!-- Generator: Adobe Illustrator 16.0.0, SVG Export Plug-In . SVG Version: 6.00 Build 0)  -->

<svg
   xmlns:dc="http://purl.org/dc/elements/1.1/"
   xmlns:cc="http://creativecommons.org/ns#"
   xmlns:rdf="http://www.w3.org/1999/02/22-rdf-syntax-ns#"
   xmlns:svg="http://www.w3.org/2000/svg"
   xmlns="http://www.w3.org/2000/svg"
   xmlns:xlink="http://www.w3.org/1999/xlink"
   xmlns:sodipodi="http://sodipodi.sourceforge.net/DTD/sodipodi-0.dtd"
   xmlns:inkscape="http://www.inkscape.org/namespaces/inkscape"
   version="1.1"
   id="Layer_1"
   x="0px"
   y="0px"
   width="651.24268"
   height="159.18399"
   viewBox="0 0 610.54004 149.235"
   enable-background="new 0 0 722.569 346.291"
   xml:space="preserve"
   inkscape:version="0.92.5 (2060ec1f9f, 2020-04-08)"
   sodipodi:docname="qgis3_text_bg.svg"
   inkscape:export-filename="/home/suricactus/qgis3_text_bg2.png"
   inkscape:export-xdpi="278"
   inkscape:export-ydpi="278"><metadata
   id="metadata46"><rdf:RDF><cc:Work
       rdf:about=""><dc:format>image/svg+xml</dc:format><dc:type
         rdf:resource="http://purl.org/dc/dcmitype/StillImage" /><dc:title /></cc:Work></rdf:RDF></metadata><defs
   id="defs44"><linearGradient
     inkscape:collect="always"
     xlink:href="#SVGID_3_"
     id="linearGradient1527"
     x1="446.60657"
     y1="141.14322"
     x2="446.60657"
     y2="-7.7193837"
     gradientUnits="userSpaceOnUse"
     gradientTransform="matrix(0.96231269,0,0,0.96231269,19.232918,7.2143156)" /><linearGradient
     inkscape:collect="always"
     xlink:href="#SVGID_3_"
     id="linearGradient1552"
     gradientUnits="userSpaceOnUse"
     gradientTransform="translate(-110.928,-98.765001)"
     x1="553.50677"
     y1="244.6875"
     x2="551.26642"
     y2="97.388199" /></defs><sodipodi:namedview
   pagecolor="#ffffff"
   bordercolor="#666666"
   borderopacity="1"
   objecttolerance="10"
   gridtolerance="10"
   guidetolerance="10"
   inkscape:pageopacity="0"
   inkscape:pageshadow="2"
   inkscape:window-width="1920"
   inkscape:window-height="1016"
   id="namedview42"
   showgrid="false"
   inkscape:zoom="1.2565238"
   inkscape:cx="248.90723"
   inkscape:cy="139.41076"
   inkscape:window-x="0"
   inkscape:window-y="27"
   inkscape:window-maximized="1"
   inkscape:current-layer="Layer_1"
   fit-margin-top="0"
   fit-margin-right="0"
   fit-margin-bottom="0"
   fit-margin-left="0"
   showguides="true"
   inkscape:guide-bbox="true"><sodipodi:guide
     position="153.0722,72.187505"
     orientation="0,1"
     id="guide1529"
     inkscape:locked="false"
     inkscape:label=""
     inkscape:color="rgb(0,0,255)" /><sodipodi:guide
     position="363.123,5.544"
     orientation="0,1"
     id="guide1531"
     inkscape:locked="false" /></sodipodi:namedview><polygon
   points="176,162 176,183.433 195,202.37 195,180 216.513,180 198.306,162 "
   id="polygon3"
   style="fill:#ee7913"
   transform="translate(-110.928,-98.765001)" /><linearGradient
   id="SVGID_1_"
   gradientUnits="userSpaceOnUse"
   x1="350.02249"
   y1="247.7832"
   x2="347.78201"
   y2="100.4837"
   gradientTransform="translate(-110.928,-98.765001)"><stop
     offset="0"
     style="stop-color:#589632"
     id="stop6" /><stop
     offset="1"
     style="stop-color:#93B023"
     id="stop8" /></linearGradient><path
   d="M 303.318,72.369998 V 126.72 c -14.951,10.911 -37.782,18.386 -57.38,18.386 -42.833,0 -75.362,-31.113 -75.362,-72.129002 0,-40.812999 33.135,-71.724999 77.182,-71.724999 21.013,0 42.427,8.082 56.773,20.608 l -17.982,22.832 c -10.507,-9.698 -25.052,-15.76 -38.791,-15.76 -25.055,0 -44.451,19.194 -44.451,44.044999 0,25.053 19.599,44.249002 44.651,44.249002 8.486,0 18.589,-3.031 27.681,-7.678 V 72.370998 h 27.679 z"
   id="path10"
   inkscape:connector-curvature="0"
   style="fill:url(#SVGID_1_)" /><linearGradient
   id="SVGID_2_"
   gradientUnits="userSpaceOnUse"
   x1="459.22171"
   y1="246.1226"
   x2="456.98129"
   y2="98.822403"
   gradientTransform="translate(-110.928,-98.765001)"><stop
     offset="0"
     style="stop-color:#589632"
     id="stop13" /><stop
     offset="1"
     style="stop-color:#93B023"
     id="stop15" /></linearGradient><path
   d="M 331.201,143.691 V 2.260999 h 31.922 V 143.691 Z"
   id="path17"
   inkscape:connector-curvature="0"
   style="fill:url(#SVGID_2_)" /><linearGradient
   id="SVGID_3_"
   gradientUnits="userSpaceOnUse"
   x1="553.50677"
   y1="244.6875"
   x2="551.26642"
   y2="97.388199"
   gradientTransform="translate(-110.928,-98.765001)"><stop
     offset="0"
     style="stop-color:#589632"
     id="stop20" /><stop
     offset="1"
     style="stop-color:#93B023"
     id="stop22" /></linearGradient><path
   d="m 499.903,16.201999 -12.324,26.467 c -14.951,-8.89 -32.731,-14.547 -44.045,-14.547 -10.708,0 -17.981,3.839 -17.981,11.517 0,26.063999 75.362,11.517 75.16,62.431001 0,27.68 -24.045,42.631 -55.36,42.631 -23.236,0 -46.471,-8.89 -62.431,-22.427 L 395.65,96.210998 C 410.198,109.143 430.805,117.426 445.756,117.426 c 13.134,0 21.013,-4.849 21.013,-13.537 0,-26.669002 -75.362,-11.112002 -75.362,-61.219001 0,-25.659 22.023,-41.823 54.755,-41.823 19.8,-0.001 39.599,6.061 53.741,15.355 z"
   id="path24"
   inkscape:connector-curvature="0"
   style="fill:url(#linearGradient1552)" /><linearGradient
   id="SVGID_4_"
   gradientUnits="userSpaceOnUse"
   x1="234.4702"
   y1="250.03419"
   x2="232.211"
   y2="101.4977"><stop
     offset="0"
     style="stop-color:#589632"
     id="stop27" /><stop
     offset="1"
     style="stop-color:#93B023"
     id="stop29" /></linearGradient><polygon
   points="204,211.34 240.782,248 264,248 264,226.946 225.617,189 204,189 "
   id="polygon31"
   style="fill:url(#SVGID_4_)"
   transform="translate(-110.928,-98.765001)" /><polygon
   points="195,180 195,202.37 204,211.34 204,189 225.617,189 216.513,180 "
   id="polygon33"
   style="fill:#f0e64a"
   transform="translate(-110.928,-98.765001)" /><linearGradient
   id="SVGID_5_"
   gradientUnits="userSpaceOnUse"
   x1="188.7529"
   y1="250.2354"
   x2="186.5125"
   y2="102.9362"
   gradientTransform="translate(-110.928,-98.765001)"><stop
     offset="0"
     style="stop-color:#589632"
     id="stop36" /><stop
     offset="1"
     style="stop-color:#93B023"
     id="stop38" /></linearGradient><path
   d="m 87.123998,118.099 c -3.259,0.75 -6.648,1.157 -10.144,1.157 -25.004999,0 -46.270999,-20.562002 -46.270999,-47.222002 0,-26.659999 21.032,-46.768999 46.270999,-46.768999 25.239002,0 45.336002,20.108 45.336002,46.768999 0,4.336 -0.54,8.508 -1.539,12.46 L 143.921,107.634 c 5.967,-10.455002 9.305,-22.611002 9.305,-35.778002 C 153.226,30.765999 120.435,0 76.511998,0 32.789999,0 0,30.563999 0,71.855998 0,113.35 32.790999,144.522 76.511998,144.522 c 11.287,0 21.835,-2.076 31.284002,-5.854 z"
   id="path40"
   inkscape:connector-curvature="0"
   style="fill:url(#SVGID_5_)" /><path
   d="M 65.071998,63.234998 153.072,149.235 v -21.05469 l -38.38281,-37.945312 -9.10352,-9 -18.207032,-18 z"
   id="polygon4174"
   style="fill:#ffffff;fill-opacity:0.17254902"
   inkscape:connector-curvature="0"
   sodipodi:nodetypes="ccccccc" /><text
   xml:space="preserve"
   style="font-style:normal;font-weight:normal;font-size:87.39069366px;line-height:1.25;font-family:sans-serif;letter-spacing:0px;word-spacing:0px;fill:url(#linearGradient1527);fill-opacity:1;stroke:none;stroke-width:2.18476725"
   x="502.11407"
   y="142.6752"
   id="text834"><tspan
     sodipodi:role="line"
     id="tspan832"
     x="502.11407"
     y="142.6752"
     style="font-style:normal;font-variant:normal;font-weight:normal;font-stretch:normal;font-family:Simbal;-inkscape-font-specification:Simbal;fill:url(#linearGradient1527);fill-opacity:1;stroke-width:2.18476725">.бг</tspan></text>

</svg>